<mxfile host="65bd71144e">
    <diagram id="nFT-gMXtFcs6V0Sla8Oa" name="Page-1">
        <mxGraphModel dx="971" dy="556" grid="1" gridSize="10" guides="1" tooltips="1" connect="1" arrows="1" fold="1" page="1" pageScale="1" pageWidth="850" pageHeight="1100" background="none" math="0" shadow="0">
            <root>
                <mxCell id="0"/>
                <mxCell id="1" parent="0"/>
                <mxCell id="70" value="Selectionner &lt;br&gt;un circuit" style="edgeStyle=none;html=1;exitX=0;exitY=0.25;exitDx=0;exitDy=0;entryX=1;entryY=0.5;entryDx=0;entryDy=0;shape=flexArrow;" edge="1" parent="1" source="2" target="46">
                    <mxGeometry relative="1" as="geometry"/>
                </mxCell>
                <mxCell id="2" value="" style="rounded=0;whiteSpace=wrap;html=1;" parent="1" vertex="1">
                    <mxGeometry x="890" y="650" width="450" height="460" as="geometry"/>
                </mxCell>
                <mxCell id="3" value="Header : onglets principales pages (Home)" style="rounded=0;whiteSpace=wrap;html=1;" parent="1" vertex="1">
                    <mxGeometry x="900" y="660" width="290" height="30" as="geometry"/>
                </mxCell>
                <mxCell id="4" value="Header : options connections" style="rounded=0;whiteSpace=wrap;html=1;" parent="1" vertex="1">
                    <mxGeometry x="1200" y="660" width="130" height="30" as="geometry"/>
                </mxCell>
                <mxCell id="5" value="Page paramétrage événement" style="text;html=1;strokeColor=none;fillColor=none;align=center;verticalAlign=middle;whiteSpace=wrap;rounded=0;" parent="1" vertex="1">
                    <mxGeometry x="890" y="620" width="450" height="30" as="geometry"/>
                </mxCell>
                <mxCell id="6" value="Footer" style="rounded=0;whiteSpace=wrap;html=1;" parent="1" vertex="1">
                    <mxGeometry x="900" y="990" width="430" height="110" as="geometry"/>
                </mxCell>
                <mxCell id="7" value="type événement : titre événement" style="rounded=0;whiteSpace=wrap;html=1;" parent="1" vertex="1">
                    <mxGeometry x="900" y="700" width="430" height="20" as="geometry"/>
                </mxCell>
                <mxCell id="8" value="description" style="rounded=0;whiteSpace=wrap;html=1;" parent="1" vertex="1">
                    <mxGeometry x="900" y="720" width="430" height="100" as="geometry"/>
                </mxCell>
                <mxCell id="9" value="infos pratiques :&lt;br&gt;- date&lt;br&gt;- lieu" style="rounded=0;whiteSpace=wrap;html=1;" parent="1" vertex="1">
                    <mxGeometry x="900" y="820" width="430" height="130" as="geometry"/>
                </mxCell>
                <mxCell id="10" value="Valider modifications / ouverture inscription / supprimer événement&amp;nbsp;" style="rounded=0;whiteSpace=wrap;html=1;" parent="1" vertex="1">
                    <mxGeometry x="900" y="950" width="430" height="30" as="geometry"/>
                </mxCell>
                <mxCell id="11" value="" style="rounded=0;whiteSpace=wrap;html=1;" parent="1" vertex="1">
                    <mxGeometry x="890" y="60" width="450" height="460" as="geometry"/>
                </mxCell>
                <mxCell id="12" value="Header : onglets principales pages (Home)" style="rounded=0;whiteSpace=wrap;html=1;" parent="1" vertex="1">
                    <mxGeometry x="900" y="70" width="290" height="30" as="geometry"/>
                </mxCell>
                <mxCell id="13" value="Header : options connections" style="rounded=0;whiteSpace=wrap;html=1;" parent="1" vertex="1">
                    <mxGeometry x="1200" y="70" width="130" height="30" as="geometry"/>
                </mxCell>
                <mxCell id="14" value="Page paramétrage événements" style="text;html=1;strokeColor=none;fillColor=none;align=center;verticalAlign=middle;whiteSpace=wrap;rounded=0;" parent="1" vertex="1">
                    <mxGeometry x="890" y="30" width="450" height="30" as="geometry"/>
                </mxCell>
                <mxCell id="15" value="Footer" style="rounded=0;whiteSpace=wrap;html=1;" parent="1" vertex="1">
                    <mxGeometry x="900" y="400" width="430" height="110" as="geometry"/>
                </mxCell>
                <mxCell id="16" value="Bouton créer nouvel évènement" style="rounded=0;whiteSpace=wrap;html=1;" parent="1" vertex="1">
                    <mxGeometry x="900" y="110" width="110" height="30" as="geometry"/>
                </mxCell>
                <mxCell id="17" value="Liste des évènements déjà créés" style="rounded=0;whiteSpace=wrap;html=1;" parent="1" vertex="1">
                    <mxGeometry x="900" y="140" width="430" height="90" as="geometry"/>
                </mxCell>
                <mxCell id="18" value="Bouton créer nouvel évènement" style="rounded=0;whiteSpace=wrap;html=1;" parent="1" vertex="1">
                    <mxGeometry x="900" y="230" width="110" height="30" as="geometry"/>
                </mxCell>
                <mxCell id="19" value="Modifier évènement" style="shape=flexArrow;endArrow=classic;html=1;exitX=0.5;exitY=1;exitDx=0;exitDy=0;" parent="1" source="11" edge="1">
                    <mxGeometry width="50" height="50" relative="1" as="geometry">
                        <mxPoint x="1002.25" y="545" as="sourcePoint"/>
                        <mxPoint x="1115" y="620" as="targetPoint"/>
                    </mxGeometry>
                </mxCell>
                <mxCell id="21" value="Creer nouvel &lt;br&gt;évènement" style="shape=flexArrow;endArrow=classic;html=1;exitX=1;exitY=0.25;exitDx=0;exitDy=0;entryX=0;entryY=0.5;entryDx=0;entryDy=0;" parent="1" source="11" target="24" edge="1">
                    <mxGeometry width="50" height="50" relative="1" as="geometry">
                        <mxPoint x="1390" y="160" as="sourcePoint"/>
                        <mxPoint x="1460" y="160" as="targetPoint"/>
                    </mxGeometry>
                </mxCell>
                <mxCell id="24" value="" style="rounded=0;whiteSpace=wrap;html=1;" parent="1" vertex="1">
                    <mxGeometry x="1480" y="60" width="450" height="180" as="geometry"/>
                </mxCell>
                <mxCell id="25" value="Page paramétrage événements" style="text;html=1;strokeColor=none;fillColor=none;align=center;verticalAlign=middle;whiteSpace=wrap;rounded=0;" parent="1" vertex="1">
                    <mxGeometry x="1480" y="30" width="450" height="30" as="geometry"/>
                </mxCell>
                <mxCell id="26" value="Choix type événement" style="rounded=0;whiteSpace=wrap;html=1;" parent="1" vertex="1">
                    <mxGeometry x="1490" y="70" width="430" height="90" as="geometry"/>
                </mxCell>
                <mxCell id="27" value="" style="shape=flexArrow;endArrow=classic;html=1;exitX=0.5;exitY=1;exitDx=0;exitDy=0;entryX=0.5;entryY=0;entryDx=0;entryDy=0;" parent="1" source="24" target="31" edge="1">
                    <mxGeometry width="50" height="50" relative="1" as="geometry">
                        <mxPoint x="1690" y="260" as="sourcePoint"/>
                        <mxPoint x="1690" y="320" as="targetPoint"/>
                    </mxGeometry>
                </mxCell>
                <mxCell id="28" value="" style="rounded=0;whiteSpace=wrap;html=1;" parent="1" vertex="1">
                    <mxGeometry x="1480" y="360" width="450" height="460" as="geometry"/>
                </mxCell>
                <mxCell id="29" value="Header : onglets principales pages (Home)" style="rounded=0;whiteSpace=wrap;html=1;" parent="1" vertex="1">
                    <mxGeometry x="1490" y="370" width="290" height="30" as="geometry"/>
                </mxCell>
                <mxCell id="30" value="Header : options connections" style="rounded=0;whiteSpace=wrap;html=1;" parent="1" vertex="1">
                    <mxGeometry x="1790" y="370" width="130" height="30" as="geometry"/>
                </mxCell>
                <mxCell id="31" value="Page paramétrage événements" style="text;html=1;strokeColor=none;fillColor=none;align=center;verticalAlign=middle;whiteSpace=wrap;rounded=0;" parent="1" vertex="1">
                    <mxGeometry x="1480" y="330" width="450" height="30" as="geometry"/>
                </mxCell>
                <mxCell id="32" value="Footer" style="rounded=0;whiteSpace=wrap;html=1;" parent="1" vertex="1">
                    <mxGeometry x="1490" y="700" width="430" height="110" as="geometry"/>
                </mxCell>
                <mxCell id="33" value="Paramètres recherche lieu&lt;br&gt;- date de l'évènement" style="rounded=0;whiteSpace=wrap;html=1;" parent="1" vertex="1">
                    <mxGeometry x="1490" y="410" width="430" height="70" as="geometry"/>
                </mxCell>
                <mxCell id="34" value="Liste lieux disponibles" style="rounded=0;whiteSpace=wrap;html=1;" parent="1" vertex="1">
                    <mxGeometry x="1490" y="480" width="430" height="90" as="geometry"/>
                </mxCell>
                <mxCell id="35" value="" style="shape=flexArrow;endArrow=classic;html=1;exitX=0.25;exitY=1;exitDx=0;exitDy=0;entryX=0.25;entryY=0;entryDx=0;entryDy=0;" parent="1" source="28" target="40" edge="1">
                    <mxGeometry width="50" height="50" relative="1" as="geometry">
                        <mxPoint x="1620" y="840" as="sourcePoint"/>
                        <mxPoint x="1620" y="900" as="targetPoint"/>
                    </mxGeometry>
                </mxCell>
                <mxCell id="36" value="Paramètre recherche lieu sauvegardés et mis dans infos pratiques" style="text;html=1;strokeColor=none;fillColor=none;align=center;verticalAlign=middle;whiteSpace=wrap;rounded=0;" parent="1" vertex="1">
                    <mxGeometry x="1600" y="850" width="180" height="30" as="geometry"/>
                </mxCell>
                <mxCell id="37" value="" style="rounded=0;whiteSpace=wrap;html=1;" parent="1" vertex="1">
                    <mxGeometry x="1480" y="950" width="450" height="460" as="geometry"/>
                </mxCell>
                <mxCell id="38" value="Header : onglets principales pages (Home)" style="rounded=0;whiteSpace=wrap;html=1;" parent="1" vertex="1">
                    <mxGeometry x="1490" y="960" width="290" height="30" as="geometry"/>
                </mxCell>
                <mxCell id="39" value="Header : options connections" style="rounded=0;whiteSpace=wrap;html=1;" parent="1" vertex="1">
                    <mxGeometry x="1790" y="960" width="130" height="30" as="geometry"/>
                </mxCell>
                <mxCell id="40" value="Page paramétrage événements" style="text;html=1;strokeColor=none;fillColor=none;align=center;verticalAlign=middle;whiteSpace=wrap;rounded=0;" parent="1" vertex="1">
                    <mxGeometry x="1480" y="920" width="450" height="30" as="geometry"/>
                </mxCell>
                <mxCell id="41" value="Footer" style="rounded=0;whiteSpace=wrap;html=1;" parent="1" vertex="1">
                    <mxGeometry x="1490" y="1290" width="430" height="110" as="geometry"/>
                </mxCell>
                <mxCell id="42" value="titre lieu" style="rounded=0;whiteSpace=wrap;html=1;" parent="1" vertex="1">
                    <mxGeometry x="1490" y="1000" width="430" height="30" as="geometry"/>
                </mxCell>
                <mxCell id="43" value="Infos lieu" style="rounded=0;whiteSpace=wrap;html=1;" parent="1" vertex="1">
                    <mxGeometry x="1490" y="1030" width="430" height="90" as="geometry"/>
                </mxCell>
                <mxCell id="44" value="Bouton choisir lieu" style="rounded=0;whiteSpace=wrap;html=1;" parent="1" vertex="1">
                    <mxGeometry x="1490" y="1120" width="110" height="30" as="geometry"/>
                </mxCell>
                <mxCell id="45" value="" style="shape=flexArrow;endArrow=classic;html=1;exitX=0;exitY=0.25;exitDx=0;exitDy=0;entryX=1;entryY=0.75;entryDx=0;entryDy=0;" parent="1" source="37" target="2" edge="1">
                    <mxGeometry width="50" height="50" relative="1" as="geometry">
                        <mxPoint x="1450" y="1030" as="sourcePoint"/>
                        <mxPoint x="1380" y="1030" as="targetPoint"/>
                    </mxGeometry>
                </mxCell>
                <mxCell id="46" value="" style="rounded=0;whiteSpace=wrap;html=1;" parent="1" vertex="1">
                    <mxGeometry x="270" y="390" width="450" height="460" as="geometry"/>
                </mxCell>
                <mxCell id="47" value="Header : onglets principales pages (Home)" style="rounded=0;whiteSpace=wrap;html=1;" parent="1" vertex="1">
                    <mxGeometry x="280" y="400" width="290" height="30" as="geometry"/>
                </mxCell>
                <mxCell id="48" value="Header : options connections" style="rounded=0;whiteSpace=wrap;html=1;" parent="1" vertex="1">
                    <mxGeometry x="580" y="400" width="130" height="30" as="geometry"/>
                </mxCell>
                <mxCell id="49" value="Affichage liste des circuits disponibles" style="text;html=1;strokeColor=none;fillColor=none;align=center;verticalAlign=middle;whiteSpace=wrap;rounded=0;" parent="1" vertex="1">
                    <mxGeometry x="270" y="360" width="450" height="30" as="geometry"/>
                </mxCell>
                <mxCell id="50" value="Footer" style="rounded=0;whiteSpace=wrap;html=1;" parent="1" vertex="1">
                    <mxGeometry x="280" y="730" width="430" height="110" as="geometry"/>
                </mxCell>
                <mxCell id="51" value="Paramètres recherche circuit" style="rounded=0;whiteSpace=wrap;html=1;" parent="1" vertex="1">
                    <mxGeometry x="280" y="440" width="430" height="30" as="geometry"/>
                </mxCell>
                <mxCell id="52" value="liste circuit disponible" style="rounded=0;whiteSpace=wrap;html=1;" parent="1" vertex="1">
                    <mxGeometry x="280" y="470" width="430" height="90" as="geometry"/>
                </mxCell>
                <mxCell id="53" value="" style="shape=flexArrow;endArrow=classic;html=1;exitX=0.25;exitY=1;exitDx=0;exitDy=0;entryX=0.25;entryY=0;entryDx=0;entryDy=0;" parent="1" source="46" target="63" edge="1">
                    <mxGeometry width="50" height="50" relative="1" as="geometry">
                        <mxPoint x="410.0000000000002" y="870" as="sourcePoint"/>
                        <mxPoint x="410.0000000000002" y="930" as="targetPoint"/>
                    </mxGeometry>
                </mxCell>
                <mxCell id="54" value="selection circuit" style="text;html=1;strokeColor=none;fillColor=none;align=center;verticalAlign=middle;whiteSpace=wrap;rounded=0;" parent="1" vertex="1">
                    <mxGeometry x="412.75" y="880" width="180" height="30" as="geometry"/>
                </mxCell>
                <mxCell id="59" value="" style="shape=flexArrow;endArrow=classic;html=1;entryX=0.75;entryY=1;entryDx=0;entryDy=0;exitX=0.75;exitY=0;exitDx=0;exitDy=0;" parent="1" source="63" target="46" edge="1">
                    <mxGeometry width="50" height="50" relative="1" as="geometry">
                        <mxPoint x="650" y="920" as="sourcePoint"/>
                        <mxPoint x="650" y="870" as="targetPoint"/>
                    </mxGeometry>
                </mxCell>
                <mxCell id="71" value="Valider selection" style="edgeStyle=none;shape=flexArrow;html=1;exitX=1;exitY=0.25;exitDx=0;exitDy=0;entryX=0;entryY=0.75;entryDx=0;entryDy=0;" edge="1" parent="1" source="60" target="2">
                    <mxGeometry relative="1" as="geometry"/>
                </mxCell>
                <mxCell id="60" value="" style="rounded=0;whiteSpace=wrap;html=1;" parent="1" vertex="1">
                    <mxGeometry x="270" y="970" width="450" height="460" as="geometry"/>
                </mxCell>
                <mxCell id="61" value="Header : onglets principales pages (Home)" style="rounded=0;whiteSpace=wrap;html=1;" parent="1" vertex="1">
                    <mxGeometry x="280" y="980" width="290" height="30" as="geometry"/>
                </mxCell>
                <mxCell id="62" value="Header : options connections" style="rounded=0;whiteSpace=wrap;html=1;" parent="1" vertex="1">
                    <mxGeometry x="580" y="980" width="130" height="30" as="geometry"/>
                </mxCell>
                <mxCell id="63" value="Affichage infos circuit" style="text;html=1;strokeColor=none;fillColor=none;align=center;verticalAlign=middle;whiteSpace=wrap;rounded=0;" parent="1" vertex="1">
                    <mxGeometry x="270" y="940" width="450" height="30" as="geometry"/>
                </mxCell>
                <mxCell id="64" value="Footer" style="rounded=0;whiteSpace=wrap;html=1;" parent="1" vertex="1">
                    <mxGeometry x="280" y="1310" width="430" height="110" as="geometry"/>
                </mxCell>
                <mxCell id="66" value="Infos circuit" style="rounded=0;whiteSpace=wrap;html=1;" parent="1" vertex="1">
                    <mxGeometry x="280" y="1020" width="430" height="90" as="geometry"/>
                </mxCell>
                <mxCell id="67" value="Valider sélection" style="rounded=0;whiteSpace=wrap;html=1;" parent="1" vertex="1">
                    <mxGeometry x="280" y="1110" width="430" height="30" as="geometry"/>
                </mxCell>
                <mxCell id="69" value="Si changement &lt;br&gt;d'horaire ou de lieu" style="shape=flexArrow;endArrow=classic;html=1;entryX=0;entryY=0.75;entryDx=0;entryDy=0;exitX=1;exitY=0.25;exitDx=0;exitDy=0;" parent="1" source="2" target="28" edge="1">
                    <mxGeometry width="50" height="50" relative="1" as="geometry">
                        <mxPoint x="1460" y="1040" as="sourcePoint"/>
                        <mxPoint x="1390" y="1040" as="targetPoint"/>
                    </mxGeometry>
                </mxCell>
            </root>
        </mxGraphModel>
    </diagram>
</mxfile>